<svg style="background-color: rgb(18, 18, 18);" viewBox="-0.5 -0.5 2089 1891" height="1891px" width="2089px" version="1.1" xmlns:xlink="http://www.w3.org/1999/xlink" xmlns="http://www.w3.org/2000/svg"><defs><style type="text/css">svg { filter: invert(93%) hue-rotate(180deg); }
image { filter: invert(100%) hue-rotate(180deg) saturate(1.25) }</style></defs><g><rect stroke-width="2" stroke="rgb(0, 0, 0)" fill="rgb(255, 255, 255)" height="83" width="272" y="1807" x="909"></rect><g transform="translate(-0.5 -0.5)"><switch><text text-anchor="middle" font-size="12px" font-family="Helvetica" fill="rgb(0, 0, 0)" y="1826" x="1045">Configuring Mathesar</text></switch></g><rect stroke-width="2" stroke="rgb(0, 0, 0)" fill="rgb(255, 255, 255)" height="33" width="202" y="1840" x="952"></rect><g transform="translate(-0.5 -0.5)"><switch><text text-anchor="middle" font-size="12px" font-family="Helvetica" fill="rgb(0, 0, 0)" y="1860" x="1053">Create superuser using UI</text></switch></g><rect stroke-width="2" stroke="rgb(0, 0, 0)" fill="rgb(255, 255, 255)" height="153" width="1091" y="1604" x="499"></rect><g transform="translate(-0.5 -0.5)"><switch><text text-anchor="middle" font-size="12px" font-family="Helvetica" fill="rgb(0, 0, 0)" y="1623" x="1045">Starting Mathesar</text></switch></g><rect stroke-width="2" stroke="rgb(0, 0, 0)" fill="rgb(255, 255, 255)" height="103" width="249" y="1637" x="542"></rect><g transform="translate(-0.5 -0.5)"><switch><text text-anchor="middle" font-size="12px" font-family="Helvetica" fill="rgb(0, 0, 0)" y="1656" x="667">Docker compose</text></switch></g><rect stroke-width="2" stroke="rgb(0, 0, 0)" fill="rgb(255, 255, 255)" height="33" width="199" y="1680" x="575"></rect><g transform="translate(-0.5 -0.5)"><switch><text text-anchor="middle" font-size="12px" font-family="Helvetica" fill="rgb(0, 0, 0)" y="1700" x="675">Run docker run command</text></switch></g><rect stroke-width="2" stroke="rgb(0, 0, 0)" fill="rgb(255, 255, 255)" height="103" width="249" y="1637" x="841"></rect><g transform="translate(-0.5 -0.5)"><switch><text text-anchor="middle" font-size="12px" font-family="Helvetica" fill="rgb(0, 0, 0)" y="1656" x="966">Docker</text></switch></g><rect stroke-width="2" stroke="rgb(0, 0, 0)" fill="rgb(255, 255, 255)" height="33" width="199" y="1680" x="874"></rect><g transform="translate(-0.5 -0.5)"><switch><text text-anchor="middle" font-size="12px" font-family="Helvetica" fill="rgb(0, 0, 0)" y="1700" x="974">Run docker run command</text></switch></g><rect stroke-width="2" stroke="rgb(0, 0, 0)" fill="rgb(255, 255, 255)" height="103" width="423" y="1637" x="1140"></rect><g transform="translate(-0.5 -0.5)"><switch><text text-anchor="middle" font-size="12px" font-family="Helvetica" fill="rgb(0, 0, 0)" y="1656" x="1352">Non Docker Build
</text></switch></g><rect stroke-width="2" stroke="rgb(0, 0, 0)" fill="rgb(255, 255, 255)" height="33" width="120" y="1680" x="1426"></rect><g transform="translate(-0.5 -0.5)"><switch><text text-anchor="middle" font-size="12px" font-family="Helvetica" fill="rgb(0, 0, 0)" y="1700" x="1486">Start Mathesar</text></switch></g><rect stroke-width="2" stroke="rgb(0, 0, 0)" fill="rgb(255, 255, 255)" height="33" width="203" y="1680" x="1173"></rect><g transform="translate(-0.5 -0.5)"><switch><text text-anchor="middle" font-size="12px" font-family="Helvetica" fill="rgb(0, 0, 0)" y="1700" x="1275">Setup systemctl (Optional)</text></switch></g><path stroke-miterlimit="10" stroke="rgb(0, 0, 0)" fill="none" d="M 1376 1696.5 Q 1376 1696.5 1426 1696.5"></path><rect stroke-width="2" stroke="rgb(0, 0, 0)" fill="rgb(255, 255, 255)" height="479" width="1862" y="1" x="114"></rect><g transform="translate(-0.5 -0.5)"><switch><text text-anchor="middle" font-size="12px" font-family="Helvetica" fill="rgb(0, 0, 0)" y="20" x="1045">Pre-requisites related to before installing Mathesar</text></switch></g><rect stroke-width="2" stroke="rgb(0, 0, 0)" fill="rgb(255, 255, 255)" height="103" width="162" y="197" x="157"></rect><g transform="translate(-0.5 -0.5)"><switch><text text-anchor="middle" font-size="12px" font-family="Helvetica" fill="rgb(0, 0, 0)" y="216" x="238">Docker Compose</text></switch></g><rect stroke-width="2" stroke="rgb(0, 0, 0)" fill="rgb(255, 255, 255)" height="33" width="112" y="240" x="190"></rect><g transform="translate(-0.5 -0.5)"><switch><text text-anchor="middle" font-size="12px" font-family="Helvetica" fill="rgb(0, 0, 0)" y="260" x="246">Install Docker</text></switch></g><rect stroke-width="2" stroke="rgb(0, 0, 0)" fill="rgb(255, 255, 255)" height="306" width="716" y="96" x="369"></rect><g transform="translate(-0.5 -0.5)"><switch><text text-anchor="middle" font-size="12px" font-family="Helvetica" fill="rgb(0, 0, 0)" y="115" x="727">Docker Image</text></switch></g><rect stroke-width="2" stroke="rgb(0, 0, 0)" fill="rgb(255, 255, 255)" height="103" width="666" y="139" x="402"></rect><g transform="translate(-0.5 -0.5)"><switch><text text-anchor="middle" font-size="12px" font-family="Helvetica" fill="rgb(0, 0, 0)" y="158" x="735">Mathesar docker Image</text></switch></g><rect stroke-width="2" stroke="rgb(0, 0, 0)" fill="rgb(255, 255, 255)" height="33" width="222" y="182" x="828"></rect><g transform="translate(-0.5 -0.5)"><switch><text text-anchor="middle" font-size="12px" font-family="Helvetica" fill="rgb(0, 0, 0)" y="202" x="939">Create a database superuser</text></switch></g><rect stroke-width="2" stroke="rgb(0, 0, 0)" fill="rgb(255, 255, 255)" height="33" width="181" y="182" x="597"></rect><g transform="translate(-0.5 -0.5)"><switch><text text-anchor="middle" font-size="12px" font-family="Helvetica" fill="rgb(0, 0, 0)" y="202" x="688">setup internal database</text></switch></g><rect stroke-width="2" stroke="rgb(0, 0, 0)" fill="rgb(255, 255, 255)" height="33" width="112" y="182" x="435"></rect><g transform="translate(-0.5 -0.5)"><switch><text text-anchor="middle" font-size="12px" font-family="Helvetica" fill="rgb(0, 0, 0)" y="202" x="491">Install Docker</text></switch></g><path stroke-miterlimit="10" stroke="rgb(0, 0, 0)" fill="none" d="M 778 198.5 Q 778 198.5 828 198.5"></path><path stroke-miterlimit="10" stroke="rgb(0, 0, 0)" fill="none" d="M 547 198.5 Q 547 198.5 597 198.5"></path><rect stroke-width="2" stroke="rgb(0, 0, 0)" fill="rgb(255, 255, 255)" height="83" width="200" y="292" x="635"></rect><g transform="translate(-0.5 -0.5)"><switch><text text-anchor="middle" font-size="12px" font-family="Helvetica" fill="rgb(0, 0, 0)" y="311" x="735">Mathesar_PG docker Image</text></switch></g><rect stroke-width="2" stroke="rgb(0, 0, 0)" fill="rgb(255, 255, 255)" height="33" width="112" y="325" x="678"></rect><g transform="translate(-0.5 -0.5)"><switch><text text-anchor="middle" font-size="12px" font-family="Helvetica" fill="rgb(0, 0, 0)" y="345" x="734">Install Docker</text></switch></g><rect stroke-width="2" stroke="rgb(0, 0, 0)" fill="rgb(255, 255, 255)" height="429" width="814" y="34" x="1135"></rect><g transform="translate(-0.5 -0.5)"><switch><text text-anchor="middle" font-size="12px" font-family="Helvetica" fill="rgb(0, 0, 0)" y="53" x="1542">Non-Docker Build</text></switch></g><rect stroke-width="2" stroke="rgb(0, 0, 0)" fill="rgb(255, 255, 255)" height="226" width="736" y="67" x="1178"></rect><g transform="translate(-0.5 -0.5)"><switch><text text-anchor="middle" font-size="12px" font-family="Helvetica" fill="rgb(0, 0, 0)" y="86" x="1546">Database</text></switch></g><rect stroke-width="2" stroke="rgb(0, 0, 0)" fill="rgb(255, 255, 255)" height="33" width="181" y="130" x="1516"></rect><g transform="translate(-0.5 -0.5)"><switch><text text-anchor="middle" font-size="12px" font-family="Helvetica" fill="rgb(0, 0, 0)" y="150" x="1607">setup internal database</text></switch></g><rect stroke-width="2" stroke="rgb(0, 0, 0)" fill="rgb(255, 255, 255)" height="122" width="677" y="95" x="1211"></rect><g transform="translate(-0.5 -0.5)"><switch><text text-anchor="middle" font-size="12px" font-family="Helvetica" fill="rgb(0, 0, 0)" y="114" x="1550">Postgres</text></switch></g><rect stroke-width="2" stroke="rgb(0, 0, 0)" fill="rgb(255, 255, 255)" height="33" width="124" y="154.5" x="1221"></rect><g transform="translate(-0.5 -0.5)"><switch><text text-anchor="middle" font-size="12px" font-family="Helvetica" fill="rgb(0, 0, 0)" y="175" x="1283">Install Postgres</text></switch></g><rect stroke-width="2" stroke="rgb(0, 0, 0)" fill="rgb(255, 255, 255)" height="33" width="230" y="154.5" x="1651"></rect><g transform="translate(-0.5 -0.5)"><switch><text text-anchor="middle" font-size="12px" font-family="Helvetica" fill="rgb(0, 0, 0)" y="175" x="1766">Creates a database superuser</text></switch></g><rect stroke-width="2" stroke="rgb(0, 0, 0)" fill="rgb(255, 255, 255)" height="33" width="189" y="241" x="1236"></rect><g transform="translate(-0.5 -0.5)"><switch><text text-anchor="middle" font-size="12px" font-family="Helvetica" fill="rgb(0, 0, 0)" y="260" x="1331">Use SQLite as a internal databa...</text></switch></g><path stroke-miterlimit="10" stroke="rgb(0, 0, 0)" fill="none" d="M 1411 171 L 1351.37 171"></path><path stroke-miterlimit="10" stroke="rgb(0, 0, 0)" fill="rgb(0, 0, 0)" d="M 1346.12 171 L 1353.12 167.5 L 1351.37 171 L 1353.12 174.5 Z"></path><path stroke-miterlimit="10" stroke="rgb(0, 0, 0)" fill="none" d="M 1593 171 L 1644.63 171"></path><path stroke-miterlimit="10" stroke="rgb(0, 0, 0)" fill="rgb(0, 0, 0)" d="M 1649.88 171 L 1642.88 174.5 L 1644.63 171 L 1642.88 167.5 Z"></path><rect stroke="rgb(0, 0, 0)" fill="rgb(255, 255, 255)" height="60" width="182" y="141" x="1411"></rect><g transform="translate(-0.5 -0.5)"><switch><text text-anchor="middle" font-size="12px" font-family="Helvetica" fill="rgb(0, 0, 0)" y="175" x="1502">Setup internal database</text></switch></g><rect stroke-width="2" stroke="rgb(0, 0, 0)" fill="rgb(255, 255, 255)" height="103" width="159" y="343" x="1322"></rect><g transform="translate(-0.5 -0.5)"><switch><text text-anchor="middle" font-size="12px" font-family="Helvetica" fill="rgb(0, 0, 0)" y="362" x="1402">Zipapp</text></switch></g><rect stroke-width="2" stroke="rgb(0, 0, 0)" fill="rgb(255, 255, 255)" height="33" width="109" y="386" x="1355"></rect><g transform="translate(-0.5 -0.5)"><switch><text text-anchor="middle" font-size="12px" font-family="Helvetica" fill="rgb(0, 0, 0)" y="406" x="1410">Install python</text></switch></g><rect stroke-width="2" stroke="rgb(0, 0, 0)" fill="rgb(255, 255, 255)" height="103" width="254" y="343" x="1547"></rect><g transform="translate(-0.5 -0.5)"><switch><text text-anchor="middle" font-size="12px" font-family="Helvetica" fill="rgb(0, 0, 0)" y="362" x="1674">Debian Repo</text></switch></g><rect stroke-width="2" stroke="rgb(0, 0, 0)" fill="rgb(255, 255, 255)" height="33" width="204" y="386" x="1580"></rect><g transform="translate(-0.5 -0.5)"><switch><text text-anchor="middle" font-size="12px" font-family="Helvetica" fill="rgb(0, 0, 0)" y="406" x="1682">Add mathesar debian repo</text></switch></g><path stroke-miterlimit="10" stroke="rgb(0, 0, 0)" fill="none" d="M 1427.98 293 Q 1402 318 1401.86 343"></path><path stroke-miterlimit="10" stroke="rgb(0, 0, 0)" fill="none" d="M 1651.06 293 Q 1674 318 1674.28 343"></path><rect stroke-width="2" stroke="rgb(0, 0, 0)" fill="rgb(255, 255, 255)" height="356" width="1211" y="530" x="439"></rect><g transform="translate(-0.5 -0.5)"><switch><text text-anchor="middle" font-size="12px" font-family="Helvetica" fill="rgb(0, 0, 0)" y="549" x="1045">Download and set up Mathesar image</text></switch></g><rect stroke-width="2" stroke="rgb(0, 0, 0)" fill="rgb(255, 255, 255)" height="103" width="537" y="665" x="482"></rect><g transform="translate(-0.5 -0.5)"><switch><text text-anchor="middle" font-size="12px" font-family="Helvetica" fill="rgb(0, 0, 0)" y="684" x="751">Docker compose</text></switch></g><rect stroke-width="2" stroke="rgb(0, 0, 0)" fill="rgb(255, 255, 255)" height="33" width="251" y="708" x="515"></rect><g transform="translate(-0.5 -0.5)"><switch><text text-anchor="middle" font-size="12px" font-family="Helvetica" fill="rgb(0, 0, 0)" y="728" x="641">Download docker compose script</text></switch></g><rect stroke-width="2" stroke="rgb(0, 0, 0)" fill="rgb(255, 255, 255)" height="33" width="187" y="708" x="816"></rect><g transform="translate(-0.5 -0.5)"><switch><text text-anchor="middle" font-size="12px" font-family="Helvetica" fill="rgb(0, 0, 0)" y="728" x="910">Download docker image</text></switch></g><path stroke-miterlimit="10" stroke="rgb(0, 0, 0)" fill="none" d="M 766 724.5 Q 766 724.5 816 724.5"></path><rect stroke-width="2" stroke="rgb(0, 0, 0)" fill="rgb(255, 255, 255)" height="103" width="237" y="665" x="1069"></rect><g transform="translate(-0.5 -0.5)"><switch><text text-anchor="middle" font-size="12px" font-family="Helvetica" fill="rgb(0, 0, 0)" y="684" x="1188">Docker Image</text></switch></g><rect stroke-width="2" stroke="rgb(0, 0, 0)" fill="rgb(255, 255, 255)" height="33" width="187" y="708" x="1102"></rect><g transform="translate(-0.5 -0.5)"><switch><text text-anchor="middle" font-size="12px" font-family="Helvetica" fill="rgb(0, 0, 0)" y="728" x="1196">Download docker image</text></switch></g><rect stroke-width="2" stroke="rgb(0, 0, 0)" fill="rgb(255, 255, 255)" height="306" width="267" y="563" x="1356"></rect><g transform="translate(-0.5 -0.5)"><switch><text text-anchor="middle" font-size="12px" font-family="Helvetica" fill="rgb(0, 0, 0)" y="582" x="1490">Non-Docker Build</text></switch></g><rect stroke-width="2" stroke="rgb(0, 0, 0)" fill="rgb(255, 255, 255)" height="103" width="188" y="606" x="1403"></rect><g transform="translate(-0.5 -0.5)"><switch><text text-anchor="middle" font-size="12px" font-family="Helvetica" fill="rgb(0, 0, 0)" y="625" x="1497">Zipapps</text></switch></g><rect stroke-width="2" stroke="rgb(0, 0, 0)" fill="rgb(255, 255, 255)" height="33" width="138" y="649" x="1436"></rect><g transform="translate(-0.5 -0.5)"><switch><text text-anchor="middle" font-size="12px" font-family="Helvetica" fill="rgb(0, 0, 0)" y="669" x="1505">Download zipapp</text></switch></g><rect stroke-width="2" stroke="rgb(0, 0, 0)" fill="rgb(255, 255, 255)" height="83" width="217" y="759" x="1389"></rect><g transform="translate(-0.5 -0.5)"><switch><text text-anchor="middle" font-size="12px" font-family="Helvetica" fill="rgb(0, 0, 0)" y="778" x="1498">Debian OS</text></switch></g><rect stroke-width="2" stroke="rgb(0, 0, 0)" fill="rgb(255, 255, 255)" height="33" width="147" y="792" x="1432"></rect><g transform="translate(-0.5 -0.5)"><switch><text text-anchor="middle" font-size="12px" font-family="Helvetica" fill="rgb(0, 0, 0)" y="812" x="1506">install from apt-get</text></switch></g><rect stroke-width="2" stroke="rgb(0, 0, 0)" fill="rgb(255, 255, 255)" height="618" width="2087" y="936" x="1"></rect><g transform="translate(-0.5 -0.5)"><switch><text text-anchor="middle" font-size="12px" font-family="Helvetica" fill="rgb(0, 0, 0)" y="955" x="1045">Configuring Mathesar</text></switch></g><rect stroke-width="2" stroke="rgb(0, 0, 0)" fill="rgb(255, 255, 255)" height="485" width="556" y="1011" x="44"></rect><g transform="translate(-0.5 -0.5)"><switch><text text-anchor="middle" font-size="12px" font-family="Helvetica" fill="rgb(0, 0, 0)" y="1030" x="322">Docker compose</text></switch></g><rect stroke-width="2" stroke="rgb(0, 0, 0)" fill="rgb(255, 255, 255)" height="33" width="194" y="1127" x="233"></rect><g transform="translate(-0.5 -0.5)"><switch><text text-anchor="middle" font-size="12px" font-family="Helvetica" fill="rgb(0, 0, 0)" y="1147" x="330">Add secret key to env file</text></switch></g><rect stroke-width="2" stroke="rgb(0, 0, 0)" fill="rgb(255, 255, 255)" height="33" width="159" y="1044" x="250"></rect><g transform="translate(-0.5 -0.5)"><switch><text text-anchor="middle" font-size="12px" font-family="Helvetica" fill="rgb(0, 0, 0)" y="1064" x="330">Generate secret key</text></switch></g><rect stroke-width="2" stroke="rgb(0, 0, 0)" fill="rgb(255, 255, 255)" height="33" width="379" y="1210" x="141"></rect><g transform="translate(-0.5 -0.5)"><switch><text text-anchor="middle" font-size="12px" font-family="Helvetica" fill="rgb(0, 0, 0)" y="1230" x="331">Add user database credentials to env file (Optional)</text></switch></g><rect stroke-width="2" stroke="rgb(0, 0, 0)" fill="rgb(255, 255, 255)" height="33" width="400" y="1293" x="130"></rect><g transform="translate(-0.5 -0.5)"><switch><text text-anchor="middle" font-size="12px" font-family="Helvetica" fill="rgb(0, 0, 0)" y="1313" x="330">Add internal database credentials to env file (Optional)</text></switch></g><rect stroke-width="2" stroke="rgb(0, 0, 0)" fill="rgb(255, 255, 255)" height="103" width="486" y="1376" x="87"></rect><g transform="translate(-0.5 -0.5)"><switch><text text-anchor="middle" font-size="12px" font-family="Helvetica" fill="rgb(0, 0, 0)" y="1395" x="330">Run install script. It runs automatically when starting Mathesar</text></switch></g><rect stroke-width="2" stroke="rgb(0, 0, 0)" fill="rgb(255, 255, 255)" height="33" width="116" y="1419" x="120"></rect><g transform="translate(-0.5 -0.5)"><switch><text text-anchor="middle" font-size="12px" font-family="Helvetica" fill="rgb(0, 0, 0)" y="1439" x="178">run migrations</text></switch></g><rect stroke-width="2" stroke="rgb(0, 0, 0)" fill="rgb(255, 255, 255)" height="33" width="269" y="1419" x="286"></rect><g transform="translate(-0.5 -0.5)"><switch><text text-anchor="middle" font-size="12px" font-family="Helvetica" fill="rgb(0, 0, 0)" y="1439" x="421">Install database types and functions</text></switch></g><path stroke-miterlimit="10" stroke="rgb(0, 0, 0)" fill="none" d="M 236 1435.5 Q 236 1435.5 286 1435.5"></path><path stroke-miterlimit="10" stroke="rgb(0, 0, 0)" fill="none" d="M 329.88 1077 Q 329.88 1077 329.88 1127"></path><path stroke-miterlimit="10" stroke="rgb(0, 0, 0)" fill="none" d="M 329.88 1160 Q 329.88 1160 329.88 1210"></path><path stroke-miterlimit="10" stroke="rgb(0, 0, 0)" fill="none" d="M 329.88 1243 Q 329.88 1243 329.88 1293"></path><path stroke-miterlimit="10" stroke="rgb(0, 0, 0)" fill="none" d="M 329.88 1326 Q 329.88 1326 329.88 1376"></path><rect stroke-width="2" stroke="rgb(0, 0, 0)" fill="rgb(255, 255, 255)" height="555" width="806" y="976" x="650"></rect><g transform="translate(-0.5 -0.5)"><switch><text text-anchor="middle" font-size="12px" font-family="Helvetica" fill="rgb(0, 0, 0)" y="995" x="1053">Docker Image</text></switch></g><rect stroke-width="2" stroke="rgb(0, 0, 0)" fill="rgb(255, 255, 255)" height="33" width="159" y="1245" x="961"></rect><g transform="translate(-0.5 -0.5)"><switch><text text-anchor="middle" font-size="12px" font-family="Helvetica" fill="rgb(0, 0, 0)" y="1265" x="1041">Generate secret key</text></switch></g><rect stroke-width="2" stroke="rgb(0, 0, 0)" fill="rgb(255, 255, 255)" height="33" width="215" y="1086" x="761"></rect><g transform="translate(-0.5 -0.5)"><switch><text text-anchor="middle" font-size="12px" font-family="Helvetica" fill="rgb(0, 0, 0)" y="1105" x="869">Mathesar_PG docker Image</text></switch></g><rect stroke-width="2" stroke="rgb(0, 0, 0)" fill="rgb(255, 255, 255)" height="33" width="194" y="1328" x="944"></rect><g transform="translate(-0.5 -0.5)"><switch><text text-anchor="middle" font-size="12px" font-family="Helvetica" fill="rgb(0, 0, 0)" y="1348" x="1041">Add secret key to env file</text></switch></g><rect stroke-width="2" stroke="rgb(0, 0, 0)" fill="rgb(255, 255, 255)" height="186" width="375" y="1009" x="1026"></rect><g transform="translate(-0.5 -0.5)"><switch><text text-anchor="middle" font-size="12px" font-family="Helvetica" fill="rgb(0, 0, 0)" y="1028" x="1214">Mathesar docker Image</text></switch></g><rect stroke-width="2" stroke="rgb(0, 0, 0)" fill="rgb(255, 255, 255)" height="33" width="304" y="1052" x="1070"></rect><g transform="translate(-0.5 -0.5)"><switch><text text-anchor="middle" font-size="12px" font-family="Helvetica" fill="rgb(0, 0, 0)" y="1072" x="1222">Add user database credentials to env file</text></switch></g><rect stroke-width="2" stroke="rgb(0, 0, 0)" fill="rgb(255, 255, 255)" height="33" width="325" y="1135" x="1059"></rect><g transform="translate(-0.5 -0.5)"><switch><text text-anchor="middle" font-size="12px" font-family="Helvetica" fill="rgb(0, 0, 0)" y="1155" x="1222">Add internal database credentials to env file</text></switch></g><rect stroke-width="2" stroke="rgb(0, 0, 0)" fill="rgb(255, 255, 255)" height="103" width="486" y="1411" x="798"></rect><g transform="translate(-0.5 -0.5)"><switch><text text-anchor="middle" font-size="12px" font-family="Helvetica" fill="rgb(0, 0, 0)" y="1430" x="1041">Run install script. It runs automatically when starting Mathesar</text></switch></g><rect stroke-width="2" stroke="rgb(0, 0, 0)" fill="rgb(255, 255, 255)" height="33" width="116" y="1454" x="831"></rect><g transform="translate(-0.5 -0.5)"><switch><text text-anchor="middle" font-size="12px" font-family="Helvetica" fill="rgb(0, 0, 0)" y="1474" x="889">run migrations</text></switch></g><rect stroke-width="2" stroke="rgb(0, 0, 0)" fill="rgb(255, 255, 255)" height="33" width="269" y="1454" x="997"></rect><g transform="translate(-0.5 -0.5)"><switch><text text-anchor="middle" font-size="12px" font-family="Helvetica" fill="rgb(0, 0, 0)" y="1474" x="1132">Install database types and functions</text></switch></g><path stroke-miterlimit="10" stroke="rgb(0, 0, 0)" fill="none" d="M 947 1470.5 Q 947 1470.5 997 1470.5"></path><path stroke-miterlimit="10" stroke="rgb(0, 0, 0)" fill="none" d="M 868.21 1119 Q 868 1220 972.21 1245"></path><path stroke-miterlimit="10" stroke="rgb(0, 0, 0)" fill="none" d="M 1040.84 1278 Q 1040.84 1278 1040.84 1328"></path><path stroke-miterlimit="10" stroke="rgb(0, 0, 0)" fill="none" d="M 1213.47 1195 Q 1213 1220 1109.48 1245"></path><path stroke-miterlimit="10" stroke="rgb(0, 0, 0)" fill="none" d="M 1040.84 1361 Q 1040.84 1361 1040.84 1411"></path><rect stroke-width="2" stroke="rgb(0, 0, 0)" fill="rgb(255, 255, 255)" height="568" width="556" y="969" x="1506"></rect><g transform="translate(-0.5 -0.5)"><switch><text text-anchor="middle" font-size="12px" font-family="Helvetica" fill="rgb(0, 0, 0)" y="988" x="1784">Non Docker Build</text></switch></g><rect stroke-width="2" stroke="rgb(0, 0, 0)" fill="rgb(255, 255, 255)" height="33" width="194" y="1085" x="1695"></rect><g transform="translate(-0.5 -0.5)"><switch><text text-anchor="middle" font-size="12px" font-family="Helvetica" fill="rgb(0, 0, 0)" y="1105" x="1792">Add secret key to env file</text></switch></g><rect stroke-width="2" stroke="rgb(0, 0, 0)" fill="rgb(255, 255, 255)" height="33" width="159" y="1002" x="1712"></rect><g transform="translate(-0.5 -0.5)"><switch><text text-anchor="middle" font-size="12px" font-family="Helvetica" fill="rgb(0, 0, 0)" y="1022" x="1792">Generate secret key</text></switch></g><rect stroke-width="2" stroke="rgb(0, 0, 0)" fill="rgb(255, 255, 255)" height="33" width="325" y="1168" x="1629"></rect><g transform="translate(-0.5 -0.5)"><switch><text text-anchor="middle" font-size="12px" font-family="Helvetica" fill="rgb(0, 0, 0)" y="1188" x="1792">Add internal database credentials to env file</text></switch></g><rect stroke-width="2" stroke="rgb(0, 0, 0)" fill="rgb(255, 255, 255)" height="33" width="304" y="1251" x="1640"></rect><g transform="translate(-0.5 -0.5)"><switch><text text-anchor="middle" font-size="12px" font-family="Helvetica" fill="rgb(0, 0, 0)" y="1271" x="1792">Add user database credentials to env file</text></switch></g><rect stroke-width="2" stroke="rgb(0, 0, 0)" fill="rgb(255, 255, 255)" height="33" width="222" y="1334" x="1681"></rect><g transform="translate(-0.5 -0.5)"><switch><text text-anchor="middle" font-size="12px" font-family="Helvetica" fill="rgb(0, 0, 0)" y="1354" x="1792">Export environment variables</text></switch></g><rect stroke-width="2" stroke="rgb(0, 0, 0)" fill="rgb(255, 255, 255)" height="103" width="486" y="1417" x="1549"></rect><g transform="translate(-0.5 -0.5)"><switch><text text-anchor="middle" font-size="12px" font-family="Helvetica" fill="rgb(0, 0, 0)" y="1436" x="1792">Run install script. It runs automatically when starting Mathesar</text></switch></g><rect stroke-width="2" stroke="rgb(0, 0, 0)" fill="rgb(255, 255, 255)" height="33" width="116" y="1460" x="1582"></rect><g transform="translate(-0.5 -0.5)"><switch><text text-anchor="middle" font-size="12px" font-family="Helvetica" fill="rgb(0, 0, 0)" y="1480" x="1640">run migrations</text></switch></g><rect stroke-width="2" stroke="rgb(0, 0, 0)" fill="rgb(255, 255, 255)" height="33" width="269" y="1460" x="1748"></rect><g transform="translate(-0.5 -0.5)"><switch><text text-anchor="middle" font-size="12px" font-family="Helvetica" fill="rgb(0, 0, 0)" y="1480" x="1883">Install database types and functions</text></switch></g><path stroke-miterlimit="10" stroke="rgb(0, 0, 0)" fill="none" d="M 1698 1476.5 Q 1698 1476.5 1748 1476.5"></path><path stroke-miterlimit="10" stroke="rgb(0, 0, 0)" fill="none" d="M 1791.88 1035 Q 1791.88 1035 1791.88 1085"></path><path stroke-miterlimit="10" stroke="rgb(0, 0, 0)" fill="none" d="M 1791.88 1118 Q 1791.88 1118 1791.88 1168"></path><path stroke-miterlimit="10" stroke="rgb(0, 0, 0)" fill="none" d="M 1791.88 1201 Q 1791.88 1201 1791.88 1251"></path><path stroke-miterlimit="10" stroke="rgb(0, 0, 0)" fill="none" d="M 1791.88 1284 Q 1791.88 1284 1791.88 1334"></path><path stroke-miterlimit="10" stroke="rgb(0, 0, 0)" fill="none" d="M 1791.88 1367 Q 1791.88 1367 1791.88 1417"></path><path stroke-miterlimit="10" stroke="rgb(0, 0, 0)" fill="none" d="M 1044.65 480 Q 1044.65 480 1044.65 530"></path><path stroke-miterlimit="10" stroke="rgb(0, 0, 0)" fill="none" d="M 1044.65 886 Q 1044.65 886 1044.65 936"></path><path stroke-miterlimit="10" stroke="rgb(0, 0, 0)" fill="none" d="M 1044.65 1554 Q 1044.65 1554 1044.65 1604"></path><path stroke-miterlimit="10" stroke="rgb(0, 0, 0)" fill="none" d="M 1044.65 1757 Q 1044.65 1757 1044.65 1807"></path></g><switch><g></g><a xlink:href="https://www.drawio.com/doc/faq/svg-export-text-problems" transform="translate(0,-5)"><text y="100%" x="50%" font-size="10px" text-anchor="middle">Text is not SVG - cannot display</text></a></switch></svg>