<svg id="container" width="2144.53515625" height="1960" viewBox="-7.5 -50 2144.53515625 1960" role="graphics-document document" aria-roledescription="flowchart-v2" aria-labelledby="chart-title-container" xmlns="http://www.w3.org/2000/svg" xmlns:xlink="http://www.w3.org/1999/xlink"><title id="chart-title-container">Expected Installation Flow from this cycle</title><style>#container{font-family:"trebuchet ms",verdana,arial,sans-serif;font-size:16px;fill:#333;}#container .error-icon{fill:#552222;}#container .error-text{fill:#552222;stroke:#552222;}#container .edge-thickness-normal{stroke-width:2px;}#container .edge-thickness-thick{stroke-width:3.5px;}#container .edge-pattern-solid{stroke-dasharray:0;}#container .edge-pattern-dashed{stroke-dasharray:3;}#container .edge-pattern-dotted{stroke-dasharray:2;}#container .marker{fill:#333333;stroke:#333333;}#container .marker.cross{stroke:#333333;}#container svg{font-family:"trebuchet ms",verdana,arial,sans-serif;font-size:16px;}#container .label{font-family:"trebuchet ms",verdana,arial,sans-serif;color:#333;}#container .cluster-label text{fill:#333;}#container .cluster-label span,#container p{color:#333;}#container .label text,#container span,#container p{fill:#333;color:#333;}#container .node rect,#container .node circle,#container .node ellipse,#container .node polygon,#container .node path{fill:#ECECFF;stroke:#9370DB;stroke-width:1px;}#container .flowchart-label text{text-anchor:middle;}#container .node .label{text-align:center;}#container .node.clickable{cursor:pointer;}#container .arrowheadPath{fill:#333333;}#container .edgePath .path{stroke:#333333;stroke-width:2.0px;}#container .flowchart-link{stroke:#333333;fill:none;}#container .edgeLabel{background-color:#e8e8e8;text-align:center;}#container .edgeLabel rect{opacity:0.5;background-color:#e8e8e8;fill:#e8e8e8;}#container .cluster rect{fill:#ffffde;stroke:#aaaa33;stroke-width:1px;}#container .cluster text{fill:#333;}#container .cluster span,#container p{color:#333;}#container div.mermaidTooltip{position:absolute;text-align:center;max-width:200px;padding:2px;font-family:"trebuchet ms",verdana,arial,sans-serif;font-size:12px;background:hsl(80, 100%, 96.2745098039%);border:1px solid #aaaa33;border-radius:2px;pointer-events:none;z-index:100;}#container .flowchartTitleText{text-anchor:middle;font-size:18px;fill:#333;}#container :root{--mermaid-font-family:"trebuchet ms",verdana,arial,sans-serif;}</style><g><marker id="flowchart-pointEnd" class="marker flowchart" viewBox="0 0 12 20" refX="10" refY="5" markerUnits="userSpaceOnUse" markerWidth="12" markerHeight="12" orient="auto"><path d="M 0 0 L 10 5 L 0 10 z" class="arrowMarkerPath" style="stroke-width: 1; stroke-dasharray: 1, 0;"></path></marker><marker id="flowchart-pointStart" class="marker flowchart" viewBox="0 0 10 10" refX="0" refY="5" markerUnits="userSpaceOnUse" markerWidth="12" markerHeight="12" orient="auto"><path d="M 0 5 L 10 10 L 10 0 z" class="arrowMarkerPath" style="stroke-width: 1; stroke-dasharray: 1, 0;"></path></marker><marker id="flowchart-circleEnd" class="marker flowchart" viewBox="0 0 10 10" refX="11" refY="5" markerUnits="userSpaceOnUse" markerWidth="11" markerHeight="11" orient="auto"><circle cx="5" cy="5" r="5" class="arrowMarkerPath" style="stroke-width: 1; stroke-dasharray: 1, 0;"></circle></marker><marker id="flowchart-circleStart" class="marker flowchart" viewBox="0 0 10 10" refX="-1" refY="5" markerUnits="userSpaceOnUse" markerWidth="11" markerHeight="11" orient="auto"><circle cx="5" cy="5" r="5" class="arrowMarkerPath" style="stroke-width: 1; stroke-dasharray: 1, 0;"></circle></marker><marker id="flowchart-crossEnd" class="marker cross flowchart" viewBox="0 0 11 11" refX="12" refY="5.2" markerUnits="userSpaceOnUse" markerWidth="11" markerHeight="11" orient="auto"><path d="M 1,1 l 9,9 M 10,1 l -9,9" class="arrowMarkerPath" style="stroke-width: 2; stroke-dasharray: 1, 0;"></path></marker><marker id="flowchart-crossStart" class="marker cross flowchart" viewBox="0 0 11 11" refX="-1" refY="5.2" markerUnits="userSpaceOnUse" markerWidth="11" markerHeight="11" orient="auto"><path d="M 1,1 l 9,9 M 10,1 l -9,9" class="arrowMarkerPath" style="stroke-width: 2; stroke-dasharray: 1, 0;"></path></marker><g class="root"><g class="clusters"></g><g class="edgePaths"><path d="M1064.267578125,482L1064.267578125,486.1666666666667C1064.267578125,490.3333333333333,1064.267578125,498.6666666666667,1064.267578125,507C1064.267578125,515.3333333333334,1064.267578125,523.6666666666666,1064.267578125,527.8333333333334L1064.267578125,532" id="L-out_803494-out_525494-0" class="edge-thickness-normal edge-pattern-solid flowchart-link LS-out_803494 LE-out_525494" style="fill:none;"></path><path d="M1064.267578125,890L1064.267578125,894.1666666666666C1064.267578125,898.3333333333334,1064.267578125,906.6666666666666,1064.267578125,915C1064.267578125,923.3333333333334,1064.267578125,931.6666666666666,1064.267578125,935.8333333333334L1064.267578125,940" id="L-out_525494-out_155371-0" class="edge-thickness-normal edge-pattern-solid flowchart-link LS-out_525494 LE-out_155371" style="fill:none;"></path><path d="M1064.267578125,1564L1064.267578125,1568.1666666666667C1064.267578125,1572.3333333333333,1064.267578125,1580.6666666666667,1064.267578125,1589C1064.267578125,1597.3333333333333,1064.267578125,1605.6666666666667,1064.267578125,1609.8333333333333L1064.267578125,1614" id="L-out_155371-out_690390-0" class="edge-thickness-normal edge-pattern-solid flowchart-link LS-out_155371 LE-out_690390" style="fill:none;"></path><path d="M1064.267578125,1768L1064.267578125,1772.1666666666667C1064.267578125,1776.3333333333333,1064.267578125,1784.6666666666667,1064.267578125,1793C1064.267578125,1801.3333333333333,1064.267578125,1809.6666666666667,1064.267578125,1813.8333333333333L1064.267578125,1818" id="L-out_690390-out_567494-0" class="edge-thickness-normal edge-pattern-solid flowchart-link LS-out_690390 LE-out_567494" style="fill:none;"></path></g><g class="edgeLabels"><g class="edgeLabel"><g class="label" transform="translate(0, 0)"></g></g><g class="edgeLabel"><g class="label" transform="translate(0, 0)"></g></g><g class="edgeLabel"><g class="label" transform="translate(0, 0)"></g></g><g class="edgeLabel"><g class="label" transform="translate(0, 0)"></g></g></g><g class="nodes"><g class="root" transform="translate(921.353515625, 1810)"><g class="clusters"><g class="cluster default flowchart-label" id="out_567494"><rect style="" rx="0" ry="0" x="8" y="8" width="270.828125" height="84"></rect><g class="cluster-label" transform="translate(66.4765625, 8)"></g></g></g><g class="edgePaths"></g><g class="edgeLabels"></g><g class="nodes"><g class="node default default flowchart-label" id="flowchart-out_626773-212" transform="translate(143.4140625, 50)"><rect class="basic label-container" style="" rx="0" ry="0" x="-100.4140625" y="-17" width="200.828125" height="34"></rect><g class="label" style="" transform="translate(-92.9140625, -9.5)"><rect></rect></g></g></g></g><g class="root" transform="translate(505.283203125, 1606)"><g class="clusters"><g class="cluster default flowchart-label" id="out_690390"><rect style="" rx="0" ry="0" x="8" y="8" width="1102.96875" height="154"></rect><g class="cluster-label" transform="translate(495.125, 8)"></g></g></g><g class="edgePaths"></g><g class="edgeLabels"></g><g class="nodes"><g class="root" transform="translate(35.5, 25)"><g class="clusters"><g class="cluster default flowchart-label" id="out_105083"><rect style="" rx="0" ry="0" x="8" y="8" width="252.203125" height="104"></rect><g class="cluster-label" transform="translate(74.1484375, 8)"></g></g></g><g class="edgePaths"></g><g class="edgeLabels"></g><g class="nodes"><g class="node default default flowchart-label" id="flowchart-out_231746-208" transform="translate(134.1015625, 60)"><rect class="basic label-container" style="" rx="0" ry="0" x="-101.1015625" y="-17" width="202.203125" height="34"></rect><g class="label" style="" transform="translate(-93.6015625, -9.5)"><rect></rect></g></g></g></g><g class="root" transform="translate(337.703125, 25)"><g class="clusters"><g class="cluster default flowchart-label" id="out_801606"><rect style="" rx="0" ry="0" x="8" y="8" width="252.203125" height="104"></rect><g class="cluster-label" transform="translate(108.9765625, 8)"></g></g></g><g class="edgePaths"></g><g class="edgeLabels"></g><g class="nodes"><g class="node default default flowchart-label" id="flowchart-out_361519-209" transform="translate(134.1015625, 60)"><rect class="basic label-container" style="" rx="0" ry="0" x="-101.1015625" y="-17" width="202.203125" height="34"></rect><g class="label" style="" transform="translate(-93.6015625, -9.5)"><rect></rect></g></g></g></g><g class="root" transform="translate(639.90625, 25)"><g class="clusters"><g class="cluster default flowchart-label" id="out_748228"><rect style="" rx="0" ry="0" x="8" y="8" width="428.5625" height="104"></rect><g class="cluster-label" transform="translate(180.2109375, 8)"></g></g></g><g class="edgePaths"><path d="M240.0625,60L244.22916666666666,60C248.39583333333334,60,256.7291666666667,60,265.0625,60C273.3958333333333,60,281.7291666666667,60,285.8958333333333,60L290.0625,60" id="L-out_318238-out_829354-0" class="edge-thickness-normal edge-pattern-solid flowchart-link LS-out_318238 LE-out_829354" style="fill:none;"></path></g><g class="edgeLabels"><g class="edgeLabel"><g class="label" transform="translate(0, 0)"></g></g></g><g class="nodes"><g class="node default default flowchart-label" id="flowchart-out_829354-211" transform="translate(350.8125, 60)"><rect class="basic label-container" style="" rx="0" ry="0" x="-60.75" y="-17" width="121.5" height="34"></rect><g class="label" style="" transform="translate(-53.25, -9.5)"><rect></rect></g></g><g class="node default default flowchart-label" id="flowchart-out_318238-210" transform="translate(136.53125, 60)"><rect class="basic label-container" style="" rx="0" ry="0" x="-103.53125" y="-17" width="207.0625" height="34"></rect><g class="label" style="" transform="translate(-96.03125, -9.5)"><rect></rect></g></g></g></g></g></g><g class="root" transform="translate(115.78125, -8)"><g class="clusters"><g class="cluster default flowchart-label" id="out_803494"><rect style="" rx="0" ry="0" x="8" y="8" width="1881.97265625" height="482"></rect><g class="cluster-label" transform="translate(763.712890625, 8)"></g></g></g><g class="edgePaths"></g><g class="edgeLabels"></g><g class="nodes"><g class="root" transform="translate(35.5, 189)"><g class="clusters"><g class="cluster default flowchart-label" id="out_338996"><rect style="" rx="0" ry="0" x="8" y="8" width="164.640625" height="104"></rect><g class="cluster-label" transform="translate(29.7109375, 8)"></g></g></g><g class="edgePaths"></g><g class="edgeLabels"></g><g class="nodes"><g class="node default default flowchart-label" id="flowchart-out_601462-193" transform="translate(90.3203125, 60)"><rect class="basic label-container" style="" rx="0" ry="0" x="-57.3203125" y="-17" width="114.640625" height="34"></rect><g class="label" style="" transform="translate(-49.8203125, -9.5)"><rect></rect></g></g></g></g><g class="root" transform="translate(250.140625, 87)"><g class="clusters"><g class="cluster default flowchart-label" id="out_205112"><rect style="" rx="0" ry="0" x="8" y="8" width="724.515625" height="308"></rect><g class="cluster-label" transform="translate(321.1328125, 8)"></g></g></g><g class="edgePaths"></g><g class="edgeLabels"></g><g class="nodes"><g class="root" transform="translate(25.5, 35)"><g class="clusters"><g class="cluster default flowchart-label" id="out_305112"><rect style="" rx="0" ry="0" x="8" y="8" width="674.515625" height="104"></rect><g class="cluster-label" transform="translate(260.7734375, 8)"></g></g></g><g class="edgePaths"><path d="M385.5625,60L389.7291666666667,60C393.8958333333333,60,402.2291666666667,60,410.5625,60C418.8958333333333,60,427.2291666666667,60,431.3958333333333,60L435.5625,60" id="L-out_385573-out_337194-0" class="edge-thickness-normal edge-pattern-solid flowchart-link LS-out_385573 LE-out_337194" style="fill:none;"></path><path d="M147.640625,60L151.80729166666666,60C155.97395833333334,60,164.30729166666666,60,172.640625,60C180.97395833333334,60,189.30729166666666,60,193.47395833333334,60L197.640625,60" id="L-out_326771-out_385573-0" class="edge-thickness-normal edge-pattern-solid flowchart-link LS-out_326771 LE-out_385573" style="fill:none;"></path></g><g class="edgeLabels"><g class="edgeLabel"><g class="label" transform="translate(0, 0)"></g></g><g class="edgeLabel"><g class="label" transform="translate(0, 0)"></g></g></g><g class="nodes"><g class="node default default flowchart-label" id="flowchart-out_337194-195" transform="translate(546.5390625, 60)"><rect class="basic label-container" style="" rx="0" ry="0" x="-110.9765625" y="-17" width="221.953125" height="34"></rect><g class="label" style="" transform="translate(-103.4765625, -9.5)"><rect></rect></g></g><g class="node default default flowchart-label" id="flowchart-out_385573-194" transform="translate(291.6015625, 60)"><rect class="basic label-container" style="" rx="0" ry="0" x="-93.9609375" y="-17" width="187.921875" height="34"></rect><g class="label" style="" transform="translate(-86.4609375, -9.5)"><rect></rect></g></g><g class="node default default flowchart-label" id="flowchart-out_326771-196" transform="translate(90.3203125, 60)"><rect class="basic label-container" style="" rx="0" ry="0" x="-57.3203125" y="-17" width="114.640625" height="34"></rect><g class="label" style="" transform="translate(-49.8203125, -9.5)"><rect></rect></g></g></g></g><g class="root" transform="translate(270.4375, 189)"><g class="clusters"><g class="cluster default flowchart-label" id="out_305113"><rect style="" rx="0" ry="0" x="2.6171875" y="8" width="195.40625" height="84"></rect><g class="cluster-label" transform="translate(2.6171875, 8)"></g></g></g><g class="edgePaths"></g><g class="edgeLabels"></g><g class="nodes"><g class="node default default flowchart-label" id="flowchart-out_626771-198" transform="translate(100.3203125, 50)"><rect class="basic label-container" style="" rx="0" ry="0" x="-57.3203125" y="-17" width="114.640625" height="34"></rect><g class="label" style="" transform="translate(-49.8203125, -9.5)"><rect></rect></g></g></g></g></g></g><g class="root" transform="translate(1024.65625, 25)"><g class="clusters"><g class="cluster default flowchart-label" id="out_166998"><rect style="" rx="0" ry="0" x="8" y="8" width="822.81640625" height="432"></rect><g class="cluster-label" transform="translate(355.251953125, 8)"></g></g></g><g class="edgePaths"><path d="M296.14461555755395,261L291.816476506295,265.1666666666667C287.48833745503595,269.3333333333333,278.832059352518,277.6666666666667,274.50392030125903,286C270.17578125,294.3333333333333,270.17578125,302.6666666666667,270.17578125,306.8333333333333L270.17578125,311" id="L-out_154998-out_166999-0" class="edge-thickness-normal edge-pattern-solid flowchart-link LS-out_154998 LE-out_166999" style="fill:none;"></path><path d="M521.9468862410072,261L525.8717541591726,265.1666666666667C529.7966220773382,269.3333333333333,537.646357913669,277.6666666666667,541.5712258318346,286C545.49609375,294.3333333333333,545.49609375,302.6666666666667,545.49609375,306.8333333333333L545.49609375,311" id="L-out_154998-out_166989-0" class="edge-thickness-normal edge-pattern-solid flowchart-link LS-out_154998 LE-out_166989" style="fill:none;"></path></g><g class="edgeLabels"><g class="edgeLabel"><g class="label" transform="translate(0, 0)"></g></g><g class="edgeLabel"><g class="label" transform="translate(0, 0)"></g></g></g><g class="nodes"><g class="root" transform="translate(35.5, 25)"><g class="clusters"><g class="cluster default flowchart-label" id="out_154998"><rect style="" rx="0" ry="0" x="8" y="8" width="743.125" height="228"></rect><g class="cluster-label" transform="translate(345.9140625, 8)"></g></g><g class="cluster default flowchart-label" id="out_153998"><rect style="" rx="0" ry="0" x="33" y="28" width="693.125" height="104"></rect><g class="cluster-label" transform="translate(348.8671875, 28)"></g></g></g><g class="edgePaths"><path d="M575.34375,80L571.1770833333334,80C567.0104166666666,80,558.6770833333334,80,550.34375,80C542.0104166666666,80,533.6770833333334,80,529.5104166666666,80L525.34375,80" id="L-out_621804-out_733135-0" class="edge-thickness-normal edge-pattern-solid flowchart-link LS-out_621804 LE-out_733135" style="fill:none;"></path><path d="M337.421875,80L333.2552083333333,80C329.0885416666667,80,320.7552083333333,80,312.421875,80C304.0885416666667,80,295.7552083333333,80,291.5885416666667,80L287.421875,80" id="L-out_733135-out_922878-0" class="edge-thickness-normal edge-pattern-solid flowchart-link LS-out_733135 LE-out_922878" style="fill:none;"></path></g><g class="edgeLabels"><g class="edgeLabel"><g class="label" transform="translate(0, 0)"></g></g><g class="edgeLabel"><g class="label" transform="translate(0, 0)"></g></g></g><g class="nodes"><g class="node default default flowchart-label" id="flowchart-out_733135-200" transform="translate(431.3828125, 80)"><rect class="basic label-container" style="" rx="0" ry="0" x="-93.9609375" y="-17" width="187.921875" height="34"></rect><g class="label" style="" transform="translate(-86.4609375, -9.5)"><rect></rect></g></g><g class="node default default flowchart-label" id="flowchart-out_621804-199" transform="translate(638.234375, 80)"><rect class="basic label-container" style="" rx="0" ry="0" x="-62.890625" y="-17" width="125.78125" height="34"></rect><g class="label" style="" transform="translate(-55.390625, -9.5)"><rect></rect></g></g><g class="node default default flowchart-label" id="flowchart-out_922878-202" transform="translate(172.7109375, 80)"><rect class="basic label-container" style="" rx="0" ry="0" x="-114.7109375" y="-17" width="229.421875" height="34"></rect><g class="label" style="" transform="translate(-107.2109375, -9.5)"><rect></rect></g></g><g class="node default default flowchart-label" id="flowchart-out_154999-223" transform="translate(172.7109375, 184)"><rect class="basic label-container" style="" rx="0" ry="0" x="-30.7578125" y="-17" width="61.515625" height="34"></rect><g class="label" style="" transform="translate(-23.2578125, -9.5)"><rect></rect></g></g></g></g><g class="root" transform="translate(179.88671875, 303)"><g class="clusters"><g class="cluster default flowchart-label" id="out_166999"><rect style="" rx="0" ry="0" x="8" y="8" width="165.578125" height="104"></rect><g class="cluster-label" transform="translate(65.828125, 8)"></g></g></g><g class="edgePaths"></g><g class="edgeLabels"></g><g class="nodes"><g class="node default default flowchart-label" id="flowchart-out_340343-206" transform="translate(90.7890625, 60)"><rect class="basic label-container" style="" rx="0" ry="0" x="-57.7890625" y="-17" width="115.578125" height="34"></rect><g class="label" style="" transform="translate(-50.2890625, -9.5)"><rect></rect></g></g></g></g><g class="root" transform="translate(408.91796875, 303)"><g class="clusters"><g class="cluster default flowchart-label" id="out_166989"><rect style="" rx="0" ry="0" x="8" y="8" width="258.15625" height="104"></rect><g class="cluster-label" transform="translate(90.890625, 8)"></g></g></g><g class="edgePaths"></g><g class="edgeLabels"></g><g class="nodes"><g class="node default default flowchart-label" id="flowchart-out_340353-207" transform="translate(137.078125, 60)"><rect class="basic label-container" style="" rx="0" ry="0" x="-104.078125" y="-17" width="208.15625" height="34"></rect><g class="label" style="" transform="translate(-96.578125, -9.5)"><rect></rect></g></g></g></g></g></g></g></g><g class="root" transform="translate(442.064453125, 524)"><g class="clusters"><g class="cluster default flowchart-label" id="out_525494"><rect style="" rx="0" ry="0" x="8" y="8" width="1229.40625" height="358"></rect><g class="cluster-label" transform="translate(486.21875, 8)"></g></g></g><g class="edgePaths"></g><g class="edgeLabels"></g><g class="nodes"><g class="root" transform="translate(35.5, 127)"><g class="clusters"><g class="cluster default flowchart-label" id="out_313739"><rect style="" rx="0" ry="0" x="8" y="8" width="545.40625" height="104"></rect><g class="cluster-label" transform="translate(220.75, 8)"></g></g></g><g class="edgePaths"><path d="M289.296875,60L293.4635416666667,60C297.6302083333333,60,305.9635416666667,60,314.296875,60C322.6302083333333,60,330.9635416666667,60,335.1302083333333,60L339.296875,60" id="L-out_804542-out_804543-0" class="edge-thickness-normal edge-pattern-solid flowchart-link LS-out_804542 LE-out_804543" style="fill:none;"></path></g><g class="edgeLabels"><g class="edgeLabel"><g class="label" transform="translate(0, 0)"></g></g></g><g class="nodes"><g class="node default default flowchart-label" id="flowchart-out_804542-187" transform="translate(161.1484375, 60)"><rect class="basic label-container" style="" rx="0" ry="0" x="-128.1484375" y="-17" width="256.296875" height="34"></rect><g class="label" style="" transform="translate(-120.6484375, -9.5)"><rect></rect></g></g><g class="node default default flowchart-label" id="flowchart-out_804543-189" transform="translate(433.8515625, 60)"><rect class="basic label-container" style="" rx="0" ry="0" x="-94.5546875" y="-17" width="189.109375" height="34"></rect><g class="label" style="" transform="translate(-87.0546875, -9.5)"><rect></rect></g></g></g></g><g class="root" transform="translate(630.90625, 127)"><g class="clusters"><g class="cluster default flowchart-label" id="out_258708"><rect style="" rx="0" ry="0" x="8" y="8" width="239.109375" height="104"></rect><g class="cluster-label" transform="translate(78.4296875, 8)"></g></g></g><g class="edgePaths"></g><g class="edgeLabels"></g><g class="nodes"><g class="node default default flowchart-label" id="flowchart-out_804554-190" transform="translate(127.5546875, 60)"><rect class="basic label-container" style="" rx="0" ry="0" x="-94.5546875" y="-17" width="189.109375" height="34"></rect><g class="label" style="" transform="translate(-87.0546875, -9.5)"><rect></rect></g></g></g></g><g class="root" transform="translate(920.015625, 25)"><g class="clusters"><g class="cluster default flowchart-label" id="out_164123"><rect style="" rx="0" ry="0" x="8" y="8" width="274.890625" height="308"></rect><g class="cluster-label" transform="translate(69.8046875, 8)"></g></g></g><g class="edgePaths"></g><g class="edgeLabels"></g><g class="nodes"><g class="root" transform="translate(42.7578125, 35)"><g class="clusters"><g class="cluster default flowchart-label" id="out_698798"><rect style="" rx="0" ry="0" x="8" y="8" width="190.375" height="104"></rect><g class="cluster-label" transform="translate(74.484375, 8)"></g></g></g><g class="edgePaths"></g><g class="edgeLabels"></g><g class="nodes"><g class="node default default flowchart-label" id="flowchart-out_340391-191" transform="translate(103.1875, 60)"><rect class="basic label-container" style="" rx="0" ry="0" x="-70.1875" y="-17" width="140.375" height="34"></rect><g class="label" style="" transform="translate(-62.6875, -9.5)"><rect></rect></g></g></g></g><g class="root" transform="translate(25.5, 189)"><g class="clusters"><g class="cluster default flowchart-label" id="out_698799"><rect style="" rx="0" ry="0" x="8" y="8" width="224.890625" height="84"></rect><g class="cluster-label" transform="translate(94.8828125, 8)"></g></g></g><g class="edgePaths"></g><g class="edgeLabels"></g><g class="nodes"><g class="node default default flowchart-label" id="flowchart-out_340369-192" transform="translate(120.4453125, 50)"><rect class="basic label-container" style="" rx="0" ry="0" x="-77.4453125" y="-17" width="154.890625" height="34"></rect><g class="label" style="" transform="translate(-69.9453125, -9.5)"><rect></rect></g></g></g></g></g></g></g></g><g class="root" transform="translate(-7.5, 932)"><g class="clusters"><g class="cluster default flowchart-label" id="out_155371"><rect style="" rx="0" ry="0" x="8" y="8" width="2128.53515625" height="624"></rect><g class="cluster-label" transform="translate(995.330078125, 8)"></g></g></g><g class="edgePaths"></g><g class="edgeLabels"></g><g class="nodes"><g class="root" transform="translate(35.5, 67)"><g class="clusters"><g class="cluster default flowchart-label" id="out_965699"><rect style="" rx="0" ry="0" x="8" y="8" width="570.375" height="490"></rect><g class="cluster-label" transform="translate(233.234375, 8)"></g></g></g><g class="edgePaths"><path d="M293.1875,67L293.1875,71.16666666666667C293.1875,75.33333333333333,293.1875,83.66666666666667,293.1875,92C293.1875,100.33333333333333,293.1875,108.66666666666667,293.1875,112.83333333333333L293.1875,117" id="L-out_426543-out_426544-0" class="edge-thickness-normal edge-pattern-solid flowchart-link LS-out_426543 LE-out_426544" style="fill:none;"></path><path d="M293.1875,151L293.1875,155.16666666666666C293.1875,159.33333333333334,293.1875,167.66666666666666,293.1875,176C293.1875,184.33333333333334,293.1875,192.66666666666666,293.1875,196.83333333333334L293.1875,201" id="L-out_426544-out_426547-0" class="edge-thickness-normal edge-pattern-solid flowchart-link LS-out_426544 LE-out_426547" style="fill:none;"></path><path d="M293.1875,235L293.1875,239.16666666666666C293.1875,243.33333333333334,293.1875,251.66666666666666,293.1875,260C293.1875,268.3333333333333,293.1875,276.6666666666667,293.1875,280.8333333333333L293.1875,285" id="L-out_426547-out_426545-0" class="edge-thickness-normal edge-pattern-solid flowchart-link LS-out_426547 LE-out_426545" style="fill:none;"></path><path d="M293.1875,319L293.1875,323.1666666666667C293.1875,327.3333333333333,293.1875,335.6666666666667,293.1875,344C293.1875,352.3333333333333,293.1875,360.6666666666667,293.1875,364.8333333333333L293.1875,369" id="L-out_426545-out_486739-0" class="edge-thickness-normal edge-pattern-solid flowchart-link LS-out_426545 LE-out_486739" style="fill:none;"></path></g><g class="edgeLabels"><g class="edgeLabel"><g class="label" transform="translate(0, 0)"></g></g><g class="edgeLabel"><g class="label" transform="translate(0, 0)"></g></g><g class="edgeLabel"><g class="label" transform="translate(0, 0)"></g></g><g class="edgeLabel"><g class="label" transform="translate(0, 0)"></g></g></g><g class="nodes"><g class="node default default flowchart-label" id="flowchart-out_426544-151" transform="translate(293.1875, 134)"><rect class="basic label-container" style="" rx="0" ry="0" x="-98.1953125" y="-17" width="196.390625" height="34"></rect><g class="label" style="" transform="translate(-90.6953125, -9.5)"><rect></rect></g></g><g class="node default default flowchart-label" id="flowchart-out_426543-150" transform="translate(293.1875, 50)"><rect class="basic label-container" style="" rx="0" ry="0" x="-78.7890625" y="-17" width="157.578125" height="34"></rect><g class="label" style="" transform="translate(-71.2890625, -9.5)"><rect></rect></g></g><g class="node default default flowchart-label" id="flowchart-out_426547-153" transform="translate(293.1875, 218)"><rect class="basic label-container" style="" rx="0" ry="0" x="-194.28125" y="-17" width="388.5625" height="34"></rect><g class="label" style="" transform="translate(-186.78125, -9.5)"><rect></rect></g></g><g class="node default default flowchart-label" id="flowchart-out_426545-155" transform="translate(293.1875, 302)"><rect class="basic label-container" style="" rx="0" ry="0" x="-206.90625" y="-17" width="413.8125" height="34"></rect><g class="label" style="" transform="translate(-199.40625, -9.5)"><rect></rect></g></g><g class="root" transform="translate(35.5, 361)"><g class="clusters"><g class="cluster default flowchart-label" id="out_486739"><rect style="" rx="0" ry="0" x="8" y="8" width="500.375" height="104"></rect><g class="cluster-label" transform="translate(30.21875, 8)"></g></g></g><g class="edgePaths"><path d="M154.453125,60L158.61979166666666,60C162.78645833333334,60,171.11979166666666,60,179.453125,60C187.78645833333334,60,196.11979166666666,60,200.28645833333334,60L204.453125,60" id="L-out_126774-out_126765-0" class="edge-thickness-normal edge-pattern-solid flowchart-link LS-out_126774 LE-out_126765" style="fill:none;"></path></g><g class="edgeLabels"><g class="edgeLabel"><g class="label" transform="translate(0, 0)"></g></g></g><g class="nodes"><g class="node default default flowchart-label" id="flowchart-out_126774-158" transform="translate(93.7265625, 60)"><rect class="basic label-container" style="" rx="0" ry="0" x="-60.7265625" y="-17" width="121.453125" height="34"></rect><g class="label" style="" transform="translate(-53.2265625, -9.5)"><rect></rect></g></g><g class="node default default flowchart-label" id="flowchart-out_126765-160" transform="translate(343.9140625, 60)"><rect class="basic label-container" style="" rx="0" ry="0" x="-139.4609375" y="-17" width="278.921875" height="34"></rect><g class="label" style="" transform="translate(-131.9609375, -9.5)"><rect></rect></g></g></g></g></g></g><g class="root" transform="translate(655.875, 32)"><g class="clusters"><g class="cluster default flowchart-label" id="out_645397"><rect style="" rx="0" ry="0" x="8" y="8" width="817.78515625" height="560"></rect><g class="cluster-label" transform="translate(367.767578125, 8)"></g></g></g><g class="edgePaths"><path d="M220.6953125,144L220.6953125,161C220.6953125,178,220.6953125,212,237.9769810267857,233.16666666666666C255.25864955357142,254.33333333333334,289.82198660714283,262.6666666666667,307.10365513392856,266.8333333333333L324.3853236607143,271" id="L-out_905112-out_626543-0" class="edge-thickness-normal edge-pattern-solid flowchart-link LS-out_905112 LE-out_626543" style="fill:none;"></path><path d="M394.89453125,305L394.89453125,309.1666666666667C394.89453125,313.3333333333333,394.89453125,321.6666666666667,394.89453125,330C394.89453125,338.3333333333333,394.89453125,346.6666666666667,394.89453125,350.8333333333333L394.89453125,355" id="L-out_626543-out_626544-0" class="edge-thickness-normal edge-pattern-solid flowchart-link LS-out_626543 LE-out_626544" style="fill:none;"></path><path d="M569.09375,221L569.09375,225.16666666666666C569.09375,229.33333333333334,569.09375,237.66666666666666,551.8120814732143,246C534.5304129464286,254.33333333333334,499.96707589285717,262.6666666666667,482.6854073660715,266.8333333333333L465.4037388392857,271" id="L-out_405112-out_626543-0" class="edge-thickness-normal edge-pattern-solid flowchart-link LS-out_405112 LE-out_626543" style="fill:none;"></path><path d="M394.89453125,389L394.89453125,393.1666666666667C394.89453125,397.3333333333333,394.89453125,405.6666666666667,394.89453125,414C394.89453125,422.3333333333333,394.89453125,430.6666666666667,394.89453125,434.8333333333333L394.89453125,439" id="L-out_626544-out_686739-0" class="edge-thickness-normal edge-pattern-solid flowchart-link LS-out_626544 LE-out_686739" style="fill:none;"></path></g><g class="edgeLabels"><g class="edgeLabel"><g class="label" transform="translate(0, 0)"></g></g><g class="edgeLabel"><g class="label" transform="translate(0, 0)"></g></g><g class="edgeLabel"><g class="label" transform="translate(0, 0)"></g></g><g class="edgeLabel"><g class="label" transform="translate(0, 0)"></g></g></g><g class="nodes"><g class="node default default flowchart-label" id="flowchart-out_626543-162" transform="translate(394.89453125, 288)"><rect class="basic label-container" style="" rx="0" ry="0" x="-78.7890625" y="-17" width="157.578125" height="34"></rect><g class="label" style="" transform="translate(-71.2890625, -9.5)"><rect></rect></g></g><g class="node default default flowchart-label" id="flowchart-out_905112-161" transform="translate(220.6953125, 127)"><rect class="basic label-container" style="" rx="0" ry="0" x="-105.203125" y="-17" width="210.40625" height="34"></rect><g class="label" style="" transform="translate(-97.703125, -9.5)"><rect></rect></g></g><g class="node default default flowchart-label" id="flowchart-out_626544-168" transform="translate(394.89453125, 372)"><rect class="basic label-container" style="" rx="0" ry="0" x="-98.1953125" y="-17" width="196.390625" height="34"></rect><g class="label" style="" transform="translate(-90.6953125, -9.5)"><rect></rect></g></g><g class="root" transform="translate(368.3984375, 25)"><g class="clusters"><g class="cluster default flowchart-label" id="out_405112"><rect style="" rx="0" ry="0" x="8" y="8" width="386.390625" height="188"></rect><g class="cluster-label" transform="translate(116.7109375, 8)"></g></g></g><g class="edgePaths"></g><g class="edgeLabels"></g><g class="nodes"><g class="node default default flowchart-label" id="flowchart-out_42654756-165" transform="translate(201.1953125, 60)"><rect class="basic label-container" style="" rx="0" ry="0" x="-155.5703125" y="-17" width="311.140625" height="34"></rect><g class="label" style="" transform="translate(-148.0703125, -9.5)"><rect></rect></g></g><g class="node default default flowchart-label" id="flowchart-out_4265456564-166" transform="translate(201.1953125, 144)"><rect class="basic label-container" style="" rx="0" ry="0" x="-168.1953125" y="-17" width="336.390625" height="34"></rect><g class="label" style="" transform="translate(-160.6953125, -9.5)"><rect></rect></g></g></g></g><g class="root" transform="translate(137.20703125, 431)"><g class="clusters"><g class="cluster default flowchart-label" id="out_686739"><rect style="" rx="0" ry="0" x="8" y="8" width="500.375" height="104"></rect><g class="cluster-label" transform="translate(30.21875, 8)"></g></g></g><g class="edgePaths"><path d="M154.453125,60L158.61979166666666,60C162.78645833333334,60,171.11979166666666,60,179.453125,60C187.78645833333334,60,196.11979166666666,60,200.28645833333334,60L204.453125,60" id="L-out_026774-out_026765-0" class="edge-thickness-normal edge-pattern-solid flowchart-link LS-out_026774 LE-out_026765" style="fill:none;"></path></g><g class="edgeLabels"><g class="edgeLabel"><g class="label" transform="translate(0, 0)"></g></g></g><g class="nodes"><g class="node default default flowchart-label" id="flowchart-out_026774-171" transform="translate(93.7265625, 60)"><rect class="basic label-container" style="" rx="0" ry="0" x="-60.7265625" y="-17" width="121.453125" height="34"></rect><g class="label" style="" transform="translate(-53.2265625, -9.5)"><rect></rect></g></g><g class="node default default flowchart-label" id="flowchart-out_026765-173" transform="translate(343.9140625, 60)"><rect class="basic label-container" style="" rx="0" ry="0" x="-139.4609375" y="-17" width="278.921875" height="34"></rect><g class="label" style="" transform="translate(-131.9609375, -9.5)"><rect></rect></g></g></g></g></g></g><g class="root" transform="translate(1523.66015625, 25)"><g class="clusters"><g class="cluster default flowchart-label" id="out_345655"><rect style="" rx="0" ry="0" x="8" y="8" width="570.375" height="574"></rect><g class="cluster-label" transform="translate(251.1171875, 8)"></g></g></g><g class="edgePaths"><path d="M293.1875,67L293.1875,71.16666666666667C293.1875,75.33333333333333,293.1875,83.66666666666667,293.1875,92C293.1875,100.33333333333333,293.1875,108.66666666666667,293.1875,112.83333333333333L293.1875,117" id="L-out_626583-out_626584-0" class="edge-thickness-normal edge-pattern-solid flowchart-link LS-out_626583 LE-out_626584" style="fill:none;"></path><path d="M293.1875,151L293.1875,155.16666666666666C293.1875,159.33333333333334,293.1875,167.66666666666666,293.1875,176C293.1875,184.33333333333334,293.1875,192.66666666666666,293.1875,196.83333333333334L293.1875,201" id="L-out_626584-out_626772-0" class="edge-thickness-normal edge-pattern-solid flowchart-link LS-out_626584 LE-out_626772" style="fill:none;"></path><path d="M293.1875,235L293.1875,239.16666666666666C293.1875,243.33333333333334,293.1875,251.66666666666666,293.1875,260C293.1875,268.3333333333333,293.1875,276.6666666666667,293.1875,280.8333333333333L293.1875,285" id="L-out_626772-out_626775-0" class="edge-thickness-normal edge-pattern-solid flowchart-link LS-out_626772 LE-out_626775" style="fill:none;"></path><path d="M293.1875,319L293.1875,323.1666666666667C293.1875,327.3333333333333,293.1875,335.6666666666667,293.1875,344C293.1875,352.3333333333333,293.1875,360.6666666666667,293.1875,364.8333333333333L293.1875,369" id="L-out_626775-out_626754-0" class="edge-thickness-normal edge-pattern-solid flowchart-link LS-out_626775 LE-out_626754" style="fill:none;"></path><path d="M293.1875,403L293.1875,407.1666666666667C293.1875,411.3333333333333,293.1875,419.6666666666667,293.1875,428C293.1875,436.3333333333333,293.1875,444.6666666666667,293.1875,448.8333333333333L293.1875,453" id="L-out_626754-out_386739-0" class="edge-thickness-normal edge-pattern-solid flowchart-link LS-out_626754 LE-out_386739" style="fill:none;"></path></g><g class="edgeLabels"><g class="edgeLabel"><g class="label" transform="translate(0, 0)"></g></g><g class="edgeLabel"><g class="label" transform="translate(0, 0)"></g></g><g class="edgeLabel"><g class="label" transform="translate(0, 0)"></g></g><g class="edgeLabel"><g class="label" transform="translate(0, 0)"></g></g><g class="edgeLabel"><g class="label" transform="translate(0, 0)"></g></g></g><g class="nodes"><g class="node default default flowchart-label" id="flowchart-out_626584-175" transform="translate(293.1875, 134)"><rect class="basic label-container" style="" rx="0" ry="0" x="-98.1953125" y="-17" width="196.390625" height="34"></rect><g class="label" style="" transform="translate(-90.6953125, -9.5)"><rect></rect></g></g><g class="node default default flowchart-label" id="flowchart-out_626583-174" transform="translate(293.1875, 50)"><rect class="basic label-container" style="" rx="0" ry="0" x="-78.7890625" y="-17" width="157.578125" height="34"></rect><g class="label" style="" transform="translate(-71.2890625, -9.5)"><rect></rect></g></g><g class="node default default flowchart-label" id="flowchart-out_626772-177" transform="translate(293.1875, 218)"><rect class="basic label-container" style="" rx="0" ry="0" x="-168.1953125" y="-17" width="336.390625" height="34"></rect><g class="label" style="" transform="translate(-160.6953125, -9.5)"><rect></rect></g></g><g class="node default default flowchart-label" id="flowchart-out_626775-179" transform="translate(293.1875, 302)"><rect class="basic label-container" style="" rx="0" ry="0" x="-155.5703125" y="-17" width="311.140625" height="34"></rect><g class="label" style="" transform="translate(-148.0703125, -9.5)"><rect></rect></g></g><g class="node default default flowchart-label" id="flowchart-out_626754-181" transform="translate(293.1875, 386)"><rect class="basic label-container" style="" rx="0" ry="0" x="-114.5" y="-17" width="229" height="34"></rect><g class="label" style="" transform="translate(-107, -9.5)"><rect></rect></g></g><g class="root" transform="translate(35.5, 445)"><g class="clusters"><g class="cluster default flowchart-label" id="out_386739"><rect style="" rx="0" ry="0" x="8" y="8" width="500.375" height="104"></rect><g class="cluster-label" transform="translate(30.21875, 8)"></g></g></g><g class="edgePaths"><path d="M154.453125,60L158.61979166666666,60C162.78645833333334,60,171.11979166666666,60,179.453125,60C187.78645833333334,60,196.11979166666666,60,200.28645833333334,60L204.453125,60" id="L-out_626774-out_626765-0" class="edge-thickness-normal edge-pattern-solid flowchart-link LS-out_626774 LE-out_626765" style="fill:none;"></path></g><g class="edgeLabels"><g class="edgeLabel"><g class="label" transform="translate(0, 0)"></g></g></g><g class="nodes"><g class="node default default flowchart-label" id="flowchart-out_626774-184" transform="translate(93.7265625, 60)"><rect class="basic label-container" style="" rx="0" ry="0" x="-60.7265625" y="-17" width="121.453125" height="34"></rect><g class="label" style="" transform="translate(-53.2265625, -9.5)"><rect></rect></g></g><g class="node default default flowchart-label" id="flowchart-out_626765-186" transform="translate(343.9140625, 60)"><rect class="basic label-container" style="" rx="0" ry="0" x="-139.4609375" y="-17" width="278.921875" height="34"></rect><g class="label" style="" transform="translate(-131.9609375, -9.5)"><rect></rect></g></g></g></g></g></g></g></g></g></g></g><text x="1064.767578125" y="-25" class="flowchartTitleText">Expected Installation Flow from this cycle</text></svg>